<?xml version="1.0" encoding="UTF-8"?>
<svg id="Layer_2" data-name="Layer 2" xmlns="http://www.w3.org/2000/svg" viewBox="0 0 800 328.48">
  <g id="Layer_1-2" data-name="Layer 1">
    <path d="M146.18,42.35c-9.38,11.1-24.38,19.85-39.38,18.6-1.88-15,5.47-30.94,14.06-40.79C130.24,8.75,146.64.63,159.93,0c1.56,15.63-4.53,30.94-13.75,42.35ZM159.77,63.91c-21.72-1.25-40.32,12.35-50.63,12.35s-26.25-11.72-43.44-11.41c-22.35.31-43.13,12.97-54.54,33.13-23.44,40.32-6.09,100.01,16.56,132.83,11.1,16.25,24.38,34.07,41.88,33.44,16.56-.63,23.13-10.78,43.13-10.78s25.94,10.78,43.44,10.47c18.13-.31,29.53-16.25,40.63-32.5,12.66-18.44,17.81-36.41,18.13-37.35-.31-.31-35-13.6-35.32-53.6-.31-33.44,27.35-49.38,28.6-50.32-15.63-23.13-40-25.63-48.44-26.25ZM285.25,18.6v243.62h37.82v-83.29h52.35c47.82,0,81.42-32.82,81.42-80.32s-32.97-80.01-80.17-80.01h-91.42ZM323.07,50.47h43.6c32.82,0,51.57,17.5,51.57,48.29s-18.75,48.44-51.72,48.44h-43.44V50.47ZM525.91,264.09c23.75,0,45.79-12.03,55.79-31.1h.78v29.22h35v-121.26c0-35.16-28.13-57.82-71.41-57.82-40.16,0-69.85,22.97-70.95,54.54h34.07c2.81-15,16.72-24.85,35.79-24.85,23.13,0,36.1,10.78,36.1,30.63v13.44l-47.19,2.81c-43.91,2.66-67.66,20.63-67.66,51.88s24.53,52.51,59.69,52.51ZM536.06,235.18c-20.16,0-32.97-9.69-32.97-24.53s12.35-24.22,35.94-25.63l42.04-2.66v13.75c0,22.82-19.38,39.07-45.01,39.07ZM664.2,328.48c36.88,0,54.22-14.06,69.38-56.73l66.41-186.27h-38.44l-44.54,143.92h-.78l-44.54-143.92h-39.54l64.07,177.36-3.44,10.78c-5.78,18.28-15.16,25.32-31.88,25.32-2.97,0-8.75-.31-11.1-.63v29.22c2.19.63,11.56.94,14.38.94Z"/>
  </g>
</svg>