<?xml version="1.0" encoding="UTF-8"?>
<svg id="Layer_2" data-name="Layer 2" xmlns="http://www.w3.org/2000/svg" viewBox="0 0 494.07 213.92">
  <defs>
    <style>
      .cls-1 {
        fill: #010d22;
      }

      .cls-2 {
        fill: #000f20;
      }
    </style>
  </defs>
  <g id="Layer_1-2" data-name="Layer 1">
    <g>
      <path class="cls-1" d="M383.5,122.71c-.18-.25-.38-.49-.54-.75-6.3-9.71-12.6-19.41-18.88-29.13-.25-.38-.89-.8-.29-1.35.55-.51.99.07,1.4.3,5.45,3.09,10.89,6.18,16.3,9.33.95.55,1.59.5,2.49-.14,11.53-8.3,23.1-16.55,34.65-24.82.26-.18.51-.37.77-.55.39-.27.8-.64,1.23-.11.4.49-.13.75-.36,1.05-5.34,6.78-10.69,13.55-16.04,20.32-6.56,8.3-13.13,16.59-19.71,24.88-.28.35-.45.83-1.01.98h0Z"/>
      <path class="cls-2" d="M494.06,183.59l-24.62-17.33c8.3-12.46,13.94-26.65,16.46-41.86,4.66-28.18-1.94-56.49-18.57-79.71-16.63-23.22-41.31-38.57-69.49-43.23s-56.49,1.93-79.71,18.57c-23.22,16.63-38.57,41.31-43.23,69.49-4.66,28.18,1.94,56.49,18.57,79.71s41.31,38.57,69.49,43.23c5.9.98,11.8,1.46,17.67,1.46,22.14,0,43.68-6.88,62.04-20.03.38-.27.76-.56,1.14-.83l29.15,20.52,21.11-29.99h-.01ZM318.75,151.12c-24.35-33.99-16.5-81.46,17.49-105.81,13.02-9.33,28.29-14.2,44-14.2,4.16,0,8.35.34,12.53,1.03,19.98,3.3,37.49,14.19,49.28,30.66s16.47,36.54,13.17,56.53c-3.3,19.98-14.19,37.49-30.66,49.28-33.99,24.35-81.46,16.5-105.81-17.49Z"/>
      <g>
        <path class="cls-2" d="M105.46,29.28c18.78,0,31.74,4.83,37.79,7.7l3.27,1.55,7.98-26.37-2.28-1.19c-3.99-2.09-19.22-8.91-47.59-8.91-30.5,0-56.65,10.04-75.6,29.04C10.04,50.15,0,76.46,0,107.2s9.8,57.4,28.33,75.42c17.62,17.13,42.05,26.19,70.64,26.19,24.86,0,43.57-4.96,52.8-9.6l2.23-1.12-6.58-26.13-3.43,1.64c-9.91,4.73-25.19,7.67-39.86,7.67-44.72,0-71.41-27.99-71.41-74.87S59.91,29.28,105.46,29.28Z"/>
        <rect class="cls-2" x="176.33" y="6.07" width="30.09" height="199.89"/>
        <rect class="cls-2" x="228.45" y="67.82" width="30.09" height="138.14"/>
        <path class="cls-2" d="M243.54,15.59c-4.96,0-9.52,1.84-12.85,5.17-3.35,3.36-5.19,7.93-5.18,12.86,0,5.04,1.83,9.66,5.18,13.03,3.22,3.22,7.62,5,12.41,5,5.31,0,9.91-1.79,13.28-5.17,3.29-3.3,5.1-7.87,5.09-12.86v-.02c-.08-10.44-7.62-18.02-17.93-18.02h0Z"/>
      </g>
    </g>
  </g>
</svg>