<?xml version="1.0" encoding="UTF-8"?>
<svg id="Layer_2" data-name="Layer 2" xmlns="http://www.w3.org/2000/svg" viewBox="0 0 748.7 462.8">
  <g id="Layer_1-2" data-name="Layer 1">
    <path d="M374.3,49.65c-3,2.35-5.9,4.68-8.72,7.2-48.87,42.62-79.6,105-79.6,174.55s30.7,131.93,79.3,174.32l.27.23c2.8,2.5,5.77,4.93,8.72,7.25,3-2.3,5.9-4.75,8.72-7.25,48.87-42.62,79.58-105,79.58-174.55s-30.7-131.93-79.3-174.32l-.27-.22c-2.8-2.5-5.75-4.87-8.72-7.2h.02ZM517.33.03h-.45c-47.57,0-91.75,14.43-128.45,39.15l.83-.52c1.88,1.48,3.57,3.03,5.12,4.65l.02.03c52.9,45.9,86.15,113.2,86.15,188.27s-33.07,142.05-85.42,187.67l-.3.25c-1.8,1.53-3.75,3.05-5.65,4.55,36.02,24.25,80.4,38.72,128.12,38.72,127.8,0,231.4-103.6,231.4-231.4S645.13.02,517.33,0h0v.03ZM353.8,419.55c1.8,1.53,3.75,3.05,5.65,4.55-36,24.22-80.35,38.68-128.08,38.68C103.58,462.77,0,359.18,0,231.4S103.6.02,231.38.02c47.67,0,92,14.43,128.82,39.15l-.82-.52c-1.87,1.48-3.57,3.03-5.12,4.65l-.03.03c-52.9,45.9-86.15,113.2-86.15,188.28s33.07,142.05,85.42,187.67l.3.25v.02Z"/>
  </g>
</svg>