<?xml version="1.0" encoding="UTF-8"?>
<svg id="Layer_2" data-name="Layer 2" xmlns="http://www.w3.org/2000/svg" viewBox="0 0 749.8 242.1">
  <g id="Layer_1-2" data-name="Layer 1">
    <path d="M371.25,4.35l-50.08,234.17h-60.6L310.73,4.35h60.52ZM626.18,155.55l31.87-87.95,18.38,87.95h-50.25ZM693.75,238.52h56.05L700.9,4.35h-51.98c-11.47,0-21.33,7.03-25.47,17l-.08.17-90.88,217h63.6l12.65-35h77.72l7.27,35ZM535.63,162.07c.25-61.82-85.48-65.23-84.88-92.85.2-8.4,8.17-17.35,25.68-19.62,3.25-.32,7-.52,10.8-.52,17.78,0,34.63,4.05,49.63,11.3l-.68-.3,10.62-49.67C529.97,3.88,510.5.08,490.15,0h-.02c-59.9,0-102.02,31.87-102.4,77.45-.37,33.7,30.07,52.48,53.05,63.72,23.62,11.47,31.55,18.85,31.42,29.08-.15,15.75-18.8,22.65-36.25,22.92-.8.02-1.77.02-2.72.02-21.78,0-42.27-5.47-60.17-15.15l.68.33-10.98,51.3c19.65,7.88,42.42,12.42,66.28,12.42h1.13-.05c63.65,0,105.28-31.42,105.5-80.1l.03.08ZM284.68,4.35l-98.15,234.17h-64.05L74.18,51.6c-.92-9.1-6.5-16.7-14.25-20.5l-.15-.08C42.58,22.57,22.57,15.7,1.65,11.37l-1.65-.27,1.45-6.77h103.13c14.05,0,25.7,10.28,27.88,23.7l.02.15,25.52,135.53L221.05,4.3l63.63.05Z"/>
  </g>
</svg>