<?xml version="1.0" encoding="UTF-8"?>
<svg id="Layer_2" data-name="Layer 2" xmlns="http://www.w3.org/2000/svg" viewBox="0 0 648.8 238.2">
  <defs>
    <style>
      .cls-1 {
        fill: #fff;
      }

      .cls-2 {
        fill: #efba1c;
      }
    </style>
  </defs>
  <g id="Layer_1-2" data-name="Layer 1">
    <g>
      <g id="uuid-ba12bfc9-8a8a-47d4-a22d-8151f22b4b89" data-name="Layer 1-2">
        <g>
          <path class="cls-1" d="M78.38,203c-3.86,1.05-7.65,1.6-11.42,1.6-10.52,0-18.96-3.8-25.31-11.42-5.39-6.57-8.11-14.53-8.11-23.87,0-10.7,3.47-19.2,10.43-25.46,5.97-5.7,13.74-8.53,23.3-8.53,7.41,0,13.59,1.78,18.5,5.36,7.14,4.82,10.7,11.96,10.7,21.4v38.03c0,12.05-3.86,21.37-11.57,27.91-7.32,6.75-17.18,10.13-29.5,10.13h-14.31c-12.54,0-22.48-3.31-29.8-9.98-7.53-6.57-11.27-15.91-11.27-28.06v-16.06l8.98-7.23h8.68v21.7c0,9.07,2.29,15.46,6.87,19.17s12.48,5.58,23.66,5.58c9.94,0,17.03-1.27,21.28-3.77,5.21-3.07,8.2-8.59,8.98-16.48h-.06ZM56.26,105.21c2.59,0,4.82.9,6.66,2.74,1.84,1.84,2.74,4.04,2.74,6.66s-.9,4.67-2.74,6.51-4.04,2.74-6.66,2.74-4.67-.9-6.51-2.74-2.74-4.01-2.74-6.51.9-4.82,2.74-6.66c1.84-1.84,4.01-2.74,6.51-2.74ZM78.84,162.05c0-3.47-1.12-6.42-3.31-8.83-2.32-2.11-5.12-3.19-8.38-3.19-4.82,0-8.68,1.69-11.57,5.06-2.98,3.47-4.49,8.29-4.49,14.47s1.63,11.09,4.91,14.77,7.65,5.48,13.17,5.48c3.07,0,6.33-.57,9.7-1.75v-26.04l-.03.03ZM78.41,105.21c2.59,0,4.79.9,6.57,2.74,1.78,1.84,2.68,4.04,2.68,6.66s-.9,4.79-2.68,6.57-3.98,2.68-6.57,2.68-4.82-.9-6.66-2.74-2.74-4.01-2.74-6.51.9-4.82,2.74-6.66c1.84-1.84,4.04-2.74,6.66-2.74Z"/>
          <path class="cls-1" d="M145.23,203.61c-10.61,0-18.96-3.62-25.01-10.85-5.12-6.18-7.65-13.8-7.65-22.84,0-10.79,3.04-19.23,9.1-25.31,6.36-6.18,14.53-9.25,24.44-9.25,7.23,0,13.5,1.78,18.8,5.36,6.93,5,10.43,12.14,10.43,21.4v26.76h4.64v14.77h-4.76c-.66,10.43-4.34,18.56-11,24.44-4.64,4.16-10.19,6.99-16.64,8.53-4.52,1.05-8.98,1.6-13.32,1.6-1.45,0-3.53-.09-6.21-.3h-.42l-7.38-9.1v-6.36c3.95.66,7.65,1.02,11.15,1.02,15.82,0,24.44-6.6,25.89-19.83h-11.99l-.06-.03ZM157.67,162.08c0-3.86-1.27-6.9-3.77-9.1-2.23-1.93-4.82-2.89-7.81-2.89-4.91,0-8.83,1.75-11.72,5.21-2.89,3.47-4.34,8.26-4.34,14.31s1.6,10.55,4.76,14.04c3.16,3.5,7.53,5.21,13.02,5.21h9.82v-26.76l.03-.03Z"/>
          <path class="cls-1" d="M332.4,137.06v50.63c0,4.34-1.51,8.08-4.55,11.21-3.04,3.13-6.72,4.7-11.06,4.7h-30.38l-5.36-5.94h-.42c-3.19,3.95-7.23,5.94-12.14,5.94h-30.38l-5.48-5.94h-.42c-3.19,3.95-7.23,5.94-12.14,5.94h-41.08v-14.77h35.44c2.41,0,3.62-1.21,3.62-3.62v-31.52h17.66v28.93c0,2.8-.06,4.88-.15,6.21h27.33c2.41,0,3.62-1.21,3.62-3.62v-39.93h17.66v38.63c0,.57-.06,1.45-.15,2.59v2.32h27.18c2.41,0,3.62-1.21,3.62-3.62v-48.16h17.66-.06Z"/>
          <path class="cls-1" d="M475.46,137.06v63.07c0,11.96-3.71,21.28-11.15,27.91-7.41,6.75-17.42,10.13-29.96,10.13h-14.31c-13.32,0-23.69-3.71-31.1-11.15-6.66-6.66-9.98-15.61-9.98-26.91v-25.89l8.98-7.23h8.68v31.52c0,9.07,2.32,15.49,6.93,19.23,4.61,3.74,12.54,5.64,23.72,5.64s18.47-1.75,22.99-5.21c5-3.86,7.53-10.43,7.53-19.68v-61.48h17.66v.06ZM426.27,135.32c2.59,0,4.82.9,6.66,2.74s2.74,4.04,2.74,6.66-.9,4.82-2.74,6.66-4.04,2.74-6.66,2.74-4.67-.9-6.51-2.74-2.74-4.04-2.74-6.66.9-4.82,2.74-6.66c1.84-1.84,4.01-2.74,6.51-2.74Z"/>
          <path class="cls-1" d="M505.71,136.19c3.28-.57,7.08-.87,11.42-.87,11.09,0,20.07,3.56,26.91,10.7,6.09,6.45,9.1,14.47,9.1,24.02v17.66c0,4.52-1.63,8.35-4.91,11.42-2.98,2.98-6.57,4.49-10.7,4.49h-46.44v-14.77h40.8c2.41,0,3.62-1.21,3.62-3.62v-13.44c0-6.66-2.02-11.99-6.09-16.06-3.77-3.77-9.22-5.79-16.33-6.09-3.28,0-5.73.18-7.38.57v-14.04.03Z"/>
          <path class="cls-1" d="M605.64,137.06v63.07c0,11.96-3.68,21.22-11,27.79-4.73,4.34-10.79,7.38-18.23,9.1-3.47.66-7.08,1.02-10.85,1.02-1.27,0-2.95-.09-5.06-.3l-7.08-8.83v-6.21c3.07.48,6.09.72,8.98.72,17.06,0,25.62-8.29,25.62-24.89v-61.48h17.66-.03Z"/>
          <path class="cls-1" d="M625.62,81.37c-1.63-2.5-2.47-5.3-2.47-8.38,0-3.95,1.21-7.2,3.62-9.76,2.41-2.56,5.48-3.83,9.25-3.83,2.71,0,5.39.42,8.11,1.3v7.65c-2.41-.57-4.25-.87-5.48-.87-4.16,0-6.21,2.32-6.21,6.93,0,1.93.48,3.44,1.45,4.49,1.15,1.63,2.89,2.47,5.21,2.47h9.7v3.62l-3.31,4.04h-25.62v-7.65h5.79-.03ZM643.28,100.03v99.96l-8.98,7.23h-8.68v-107.19h17.66Z"/>
        </g>
      </g>
      <path class="cls-2" d="M342.71,58.52c2.6,1.84,13.24-7.57,14.77-9.95,1.88-2.92-.89-6.05.42-10.11,1.62-4.99,8.02-6.35,11.81-2.66,7.1,6.92-4.31,10-5.48,14.38-1.09,4.07,3.28,10.49,2.49,15.08,2.14,2.02,21.19-11.16,22.81-13.98,2.53-4.39-.3-5.69.15-9.15.81-6.25,12.54-8.56,15.18-4.99,1.95,2.65-8.94,17.46-10.72,21.44-2.72,6.06-11.33,40.92-13.46,41.4-35.14-23.16-76.9-22.93-112.2.03-6.1-13.66-8.36-29.25-14.79-42.77-2.1-4.41-10.94-13.65-9.89-17.97.9-3.73,14.09-3.38,15.75,2.88.84,3.16-1.16,5.65-.82,7.57.74,4.18,17.99,14.55,22.41,16.86,0-4.98,3.93-11.6,2.73-16.43-.23-.94-14.96-9.66-4.06-14.99,13.41-6.56,9.35,10.69,11.38,14.04.8,1.32,12.14,10.57,13.97,9.31,1.51-1.04,13.35-32.04,13.42-34.19.21-6.4-11.35-11.19-.86-21.44,4.87-4.76,8.84-3.21,12.98,1.46,8.41,9.48-.29,11.53-1.41,17.51-1.87,9.91,10.78,26.85,13.44,36.67Z"/>
    </g>
  </g>
</svg>