<?xml version="1.0" encoding="UTF-8"?>
<svg id="Layer_2" data-name="Layer 2" xmlns="http://www.w3.org/2000/svg" viewBox="0 0 852.67 176.12">
  <defs>
    <style>
      .cls-1 {
        fill: #fff;
      }

      .cls-2 {
        fill: #efba1c;
      }
    </style>
  </defs>
  <g id="Layer_1-2" data-name="Layer 1">
    <g>
      <g>
        <path class="cls-1" d="M840.92,176.12v-46.16c-1.22-1.21-5.02,5.29-5.97,6.2-27.11,26-67.92,1.48-67.73-34.32.17-32.01,33.5-55.69,62.23-37.22,4.24,2.73,7.14,6.9,11.04,9.95l.42-14.28c1.97.25,11.76-.84,11.76,1.26v114.58h-11.75ZM803.78,69.73c-35.88,5.22-31.46,70.43,9.77,66,39.85-4.28,35.86-72.64-9.77-66Z"/>
        <path class="cls-1" d="M704.76,58.85c63.65-5.76,61.82,92.33,1.54,87.78-52.05-3.93-53.02-83.12-1.54-87.78ZM703.05,69.73c-36.12,5.25-32.12,70.76,10.6,66.01,39.05-4.34,35.64-72.73-10.6-66.01Z"/>
        <path class="cls-1" d="M604.87,58.85c59.53-5.02,63.57,84.55,6.46,87.87-55.85,3.25-61.64-83.22-6.46-87.87ZM586.87,78.21c-4.81,4.82-8.18,12.62-8.72,19.4-4.16,52.18,66.54,49.7,62.13.88-2.42-26.83-34.34-39.42-53.41-20.28Z"/>
        <path class="cls-1" d="M550.49,84.63l-10.88-.04c-1.47-15.69-20.75-18.39-33.15-14.2-7.63,2.58-12.78,12.02-6.9,19.01,10.01,11.91,51.91,3.77,53.45,30.93,2.01,35.58-71.65,35.71-69.67-2.13,1.88.36,10.11-.53,10.83.09.32.28,1.52,6.39,2.43,8.06,7.61,14.04,43.27,13.4,44.7-2.69.73-8.16-4.98-11.26-11.6-13.62-12.66-4.52-38.33-4.36-42.96-19.99-11.63-39.25,64.05-42.79,63.76-5.41Z"/>
      </g>
      <g>
        <path class="cls-1" d="M257.53,144.22h-23.5v-10.07s-8.65,7.71-8.65,7.71c-38.12,18.23-67.98-19.25-56.22-56.22,8.58-26.96,42.47-36.75,63.18-16.97l.85-42.81h23.08c.09,0,1.26,1.17,1.26,1.26v117.1ZM197.39,120.42c10.8,10.8,30,6.74,34.56-8.07,5.05-16.39-2.19-35.68-21.86-33.61s-25.05,29.33-12.7,41.67Z"/>
        <path class="cls-1" d="M39.96,58.85c64.47-5.85,68.32,83.64,9.81,87.87-61.22,4.43-67.67-82.62-9.81-87.87ZM59.97,84.09c-12.5-12.09-33.33-2.68-35.58,13.77-4.67,34.2,38.25,36.97,42.39,10.49,1.3-8.33-.6-18.25-6.82-24.26Z"/>
        <path class="cls-1" d="M465.7,144.22h-23.08c-.09,0-1.26-1.17-1.26-1.26v-52.04c0-.56-3.85-7.04-4.74-7.85-7.37-6.74-23.13-4.53-28.18,4.32-.52.92-2.34,5.41-2.34,6.05v50.78h-23.5V60.28h21.82l1.27,9.24c11.05-10.16,26.28-13.89,40.69-8.81,10.09,3.56,19.32,15.13,19.32,26.01v57.5Z"/>
        <path class="cls-1" d="M161,58.6v21.82c-8.97.23-20.25.88-25.88,8.95-1.07,1.53-3.5,6.76-3.5,8.25v46.59h-24.34V61.54c0-.09,1.17-1.26,1.26-1.26h20.99c1.95,0,1.13,7.83,1.26,9.67.07.91-.46,2.8,1.25,2.08.83-.35,4.17-5.23,5.91-6.69,6.26-5.24,15.06-7.01,23.06-6.74Z"/>
        <g>
          <path class="cls-1" d="M313.6,58.85c64.56-5.79,69.02,83.95,8.97,87.87-60.15,3.92-67.15-82.65-8.97-87.87ZM304,120.42c11.6,11.63,33.94,4.94,36.41-12.09,5.57-38.35-46.5-39.81-42.58-1.47.45,4.37,3.05,10.44,6.17,13.56Z"/>
          <path class="cls-2" d="M329.76,36.74c1.63,1.15,8.31-4.75,9.28-6.25,1.18-1.83-.56-3.8.27-6.35,1.02-3.14,5.03-3.99,7.42-1.67,4.46,4.34-2.71,6.28-3.44,9.03-.68,2.55,2.06,6.59,1.56,9.47,1.34,1.27,13.3-7.01,14.32-8.78,1.59-2.76-.19-3.57.09-5.74.51-3.92,7.88-5.38,9.53-3.13,1.23,1.67-5.61,10.97-6.73,13.46-1.71,3.8-7.12,25.69-8.45,26-22.06-14.54-48.28-14.4-70.44.02-3.83-8.58-5.25-18.36-9.29-26.85-1.32-2.77-6.87-8.57-6.21-11.28.57-2.34,8.85-2.13,9.89,1.81.53,1.98-.73,3.55-.52,4.75.46,2.62,11.29,9.14,14.07,10.59,0-3.13,2.47-7.28,1.72-10.32-.15-.59-9.39-6.06-2.55-9.41,8.42-4.12,5.87,6.71,7.14,8.81.5.83,7.62,6.64,8.77,5.84.95-.66,8.38-20.12,8.43-21.47.13-4.02-7.12-7.03-.54-13.46,3.06-2.99,5.55-2.01,8.15.92,5.28,5.95-.18,7.24-.89,10.99-1.17,6.22,6.77,16.85,8.44,23.02Z"/>
        </g>
      </g>
    </g>
  </g>
</svg>